<svg xmlns="http://www.w3.org/2000/svg" xmlns:xlink="http://www.w3.org/1999/xlink" width="500" zoomAndPan="magnify" viewBox="0 0 375 112.499997" height="150" preserveAspectRatio="xMidYMid meet" version="1.0"><defs><g/></defs><g fill="#e80069" fill-opacity="1"><g transform="translate(0.864652, 71.059156)"><g><path d="M 1.90625 -42.453125 L 1.90625 -47.546875 C 1.90625 -48.492188 2.375 -48.96875 3.3125 -48.96875 L 36.875 -48.96875 C 37.300781 -48.96875 37.640625 -48.835938 37.890625 -48.578125 C 38.140625 -48.316406 38.265625 -47.972656 38.265625 -47.546875 L 38.265625 -42.453125 C 38.265625 -41.484375 37.800781 -41 36.875 -41 L 24.59375 -41 L 24.59375 -1.390625 C 24.59375 -0.441406 24.109375 0.03125 23.140625 0.03125 L 16.921875 0.03125 C 15.972656 0.03125 15.5 -0.441406 15.5 -1.390625 L 15.5 -41 L 3.3125 -41 C 2.882812 -41 2.539062 -41.125 2.28125 -41.375 C 2.03125 -41.625 1.90625 -41.984375 1.90625 -42.453125 Z M 1.90625 -42.453125 "/></g></g></g><g fill="#e80069" fill-opacity="1"><g transform="translate(41.025823, 71.059156)"><g><path d="M 35.328125 -32.75 C 35.628906 -32.75 35.875 -32.648438 36.0625 -32.453125 C 36.257812 -32.265625 36.359375 -32.007812 36.359375 -31.6875 L 36.359375 -1 C 36.359375 -0.695312 36.257812 -0.445312 36.0625 -0.25 C 35.875 -0.0625 35.628906 0.03125 35.328125 0.03125 L 31.75 0.03125 C 31.238281 0.03125 30.875 -0.203125 30.65625 -0.671875 L 29.328125 -5.09375 C 28.015625 -3.269531 26.382812 -1.84375 24.4375 -0.8125 C 22.5 0.21875 20.347656 0.734375 17.984375 0.734375 C 15.753906 0.734375 13.6875 0.304688 11.78125 -0.546875 C 9.875 -1.410156 8.210938 -2.609375 6.796875 -4.140625 C 5.378906 -5.679688 4.269531 -7.488281 3.46875 -9.5625 C 2.675781 -11.632812 2.28125 -13.882812 2.28125 -16.3125 C 2.28125 -18.800781 2.671875 -21.09375 3.453125 -23.1875 C 4.242188 -25.28125 5.347656 -27.101562 6.765625 -28.65625 C 8.179688 -30.207031 9.84375 -31.40625 11.75 -32.25 C 13.65625 -33.101562 15.722656 -33.53125 17.953125 -33.53125 C 20.316406 -33.53125 22.472656 -33.007812 24.421875 -31.96875 C 26.378906 -30.9375 28.015625 -29.488281 29.328125 -27.625 L 30.65625 -32.046875 C 30.875 -32.515625 31.238281 -32.75 31.75 -32.75 Z M 19.5 -7.28125 C 20.75 -7.28125 21.921875 -7.507812 23.015625 -7.96875 C 24.109375 -8.4375 25.070312 -9.082031 25.90625 -9.90625 C 26.75 -10.738281 27.40625 -11.703125 27.875 -12.796875 C 28.351562 -13.890625 28.59375 -15.070312 28.59375 -16.34375 C 28.59375 -17.632812 28.347656 -18.832031 27.859375 -19.9375 C 27.378906 -21.039062 26.71875 -22.003906 25.875 -22.828125 C 25.039062 -23.660156 24.078125 -24.304688 22.984375 -24.765625 C 21.890625 -25.234375 20.71875 -25.46875 19.46875 -25.46875 C 18.238281 -25.46875 17.085938 -25.234375 16.015625 -24.765625 C 14.941406 -24.304688 13.992188 -23.660156 13.171875 -22.828125 C 12.359375 -22.003906 11.71875 -21.039062 11.25 -19.9375 C 10.78125 -18.832031 10.546875 -17.632812 10.546875 -16.34375 C 10.546875 -15.070312 10.78125 -13.890625 11.25 -12.796875 C 11.71875 -11.703125 12.363281 -10.738281 13.1875 -9.90625 C 14.019531 -9.082031 14.972656 -8.4375 16.046875 -7.96875 C 17.128906 -7.507812 18.28125 -7.28125 19.5 -7.28125 Z M 19.5 -7.28125 "/></g></g></g><g fill="#e80069" fill-opacity="1"><g transform="translate(81.670476, 71.059156)"><g><path d="M 14.25 -25.40625 C 13.257812 -25.40625 12.484375 -25.21875 11.921875 -24.84375 C 11.367188 -24.476562 11.09375 -23.953125 11.09375 -23.265625 C 11.09375 -22.878906 11.207031 -22.53125 11.4375 -22.21875 C 11.675781 -21.914062 12.148438 -21.613281 12.859375 -21.3125 C 13.566406 -21.007812 14.640625 -20.65625 16.078125 -20.25 C 18.460938 -19.582031 20.5 -18.785156 22.1875 -17.859375 C 23.875 -16.929688 25.164062 -15.757812 26.0625 -14.34375 C 26.957031 -12.925781 27.40625 -11.144531 27.40625 -9 C 27.40625 -6.820312 26.859375 -5.007812 25.765625 -3.5625 C 24.679688 -2.113281 23.1875 -1.023438 21.28125 -0.296875 C 19.382812 0.421875 17.203125 0.78125 14.734375 0.78125 C 12.328125 0.78125 10.039062 0.359375 7.875 -0.484375 C 5.71875 -1.335938 3.78125 -2.660156 2.0625 -4.453125 C 1.675781 -4.816406 1.507812 -5.164062 1.5625 -5.5 C 1.613281 -5.832031 1.789062 -6.160156 2.09375 -6.484375 L 5.734375 -10.25 C 6.054688 -10.570312 6.398438 -10.707031 6.765625 -10.65625 C 7.128906 -10.601562 7.472656 -10.4375 7.796875 -10.15625 C 8.742188 -9.289062 9.820312 -8.597656 11.03125 -8.078125 C 12.25 -7.566406 13.484375 -7.3125 14.734375 -7.3125 C 16.003906 -7.3125 17.046875 -7.457031 17.859375 -7.75 C 18.671875 -8.039062 19.078125 -8.582031 19.078125 -9.375 C 19.078125 -10.195312 18.625 -10.84375 17.71875 -11.3125 C 16.820312 -11.78125 15.578125 -12.242188 13.984375 -12.703125 C 12.285156 -13.171875 10.753906 -13.703125 9.390625 -14.296875 C 8.023438 -14.890625 6.851562 -15.597656 5.875 -16.421875 C 4.90625 -17.253906 4.160156 -18.273438 3.640625 -19.484375 C 3.128906 -20.703125 2.875 -22.171875 2.875 -23.890625 C 2.875 -25.109375 3.117188 -26.289062 3.609375 -27.4375 C 4.109375 -28.59375 4.832031 -29.617188 5.78125 -30.515625 C 6.738281 -31.421875 7.925781 -32.140625 9.34375 -32.671875 C 10.757812 -33.210938 12.394531 -33.484375 14.25 -33.484375 C 16.550781 -33.484375 18.671875 -33.035156 20.609375 -32.140625 C 22.554688 -31.253906 24.316406 -29.953125 25.890625 -28.234375 C 26.523438 -27.523438 26.46875 -26.828125 25.71875 -26.140625 L 22.4375 -23.078125 C 22.132812 -22.816406 21.75 -22.691406 21.28125 -22.703125 C 20.820312 -22.710938 20.453125 -22.847656 20.171875 -23.109375 C 19.335938 -23.878906 18.457031 -24.453125 17.53125 -24.828125 C 16.613281 -25.210938 15.519531 -25.40625 14.25 -25.40625 Z M 14.25 -25.40625 "/></g></g></g><g fill="#e80069" fill-opacity="1"><g transform="translate(111.066132, 71.059156)"><g><path d="M 37.484375 -1.546875 C 37.742188 -1.179688 37.8125 -0.851562 37.6875 -0.5625 C 37.570312 -0.269531 37.320312 -0.101562 36.9375 -0.0625 L 29.984375 -0.0625 C 29.660156 -0.0195312 29.40625 -0.0703125 29.21875 -0.21875 C 29.039062 -0.375 28.84375 -0.59375 28.625 -0.875 L 17.25 -15.671875 L 12.46875 -10.890625 L 12.46875 -0.9375 C 12.46875 -0.289062 12.132812 0.03125 11.46875 0.03125 L 5.25 0.03125 C 4.601562 0.03125 4.28125 -0.289062 4.28125 -0.9375 L 4.28125 -48.0625 C 4.28125 -48.707031 4.601562 -49.03125 5.25 -49.03125 L 11.46875 -49.03125 C 12.132812 -49.03125 12.46875 -48.707031 12.46875 -48.0625 L 12.46875 -19.015625 L 24.78125 -32.140625 C 25.039062 -32.460938 25.300781 -32.648438 25.5625 -32.703125 C 25.820312 -32.753906 26.125 -32.75 26.46875 -32.6875 L 33.109375 -32.6875 C 33.617188 -32.664062 33.890625 -32.484375 33.921875 -32.140625 C 33.953125 -31.796875 33.863281 -31.503906 33.65625 -31.265625 L 23.5 -20.046875 Z M 37.484375 -1.546875 "/></g></g></g><g fill="#ffffff" fill-opacity="1"><g transform="translate(149.524249, 71.059156)"><g><path d="M 58.3125 -1.453125 C 58.351562 -0.929688 58.242188 -0.550781 57.984375 -0.3125 C 57.734375 -0.0820312 57.367188 0.03125 56.890625 0.03125 L 50.640625 0.03125 C 50.191406 0.03125 49.84375 -0.0703125 49.59375 -0.28125 C 49.34375 -0.5 49.195312 -0.859375 49.15625 -1.359375 L 46.84375 -25.265625 L 32.296875 -0.578125 C 32.015625 -0.128906 31.773438 0.191406 31.578125 0.390625 C 31.390625 0.597656 31.101562 0.703125 30.71875 0.703125 L 30.6875 0.703125 C 30.28125 0.703125 29.984375 0.597656 29.796875 0.390625 C 29.617188 0.191406 29.378906 -0.128906 29.078125 -0.578125 L 14.5625 -25.234375 L 12.21875 -1.359375 C 12.15625 -0.859375 12.003906 -0.5 11.765625 -0.28125 C 11.523438 -0.0703125 11.179688 0.03125 10.734375 0.03125 L 4.484375 0.03125 C 4.003906 0.03125 3.628906 -0.0820312 3.359375 -0.3125 C 3.097656 -0.550781 3 -0.929688 3.0625 -1.453125 L 7.796875 -48.515625 C 7.859375 -49.304688 8.269531 -49.703125 9.03125 -49.703125 L 9.1875 -49.703125 C 9.59375 -49.703125 9.867188 -49.597656 10.015625 -49.390625 C 10.171875 -49.191406 10.359375 -48.921875 10.578125 -48.578125 L 30.6875 -14.4375 L 50.796875 -48.578125 C 51.015625 -48.921875 51.195312 -49.191406 51.34375 -49.390625 C 51.5 -49.597656 51.78125 -49.703125 52.1875 -49.703125 L 52.3125 -49.703125 C 53.039062 -49.703125 53.460938 -49.304688 53.578125 -48.515625 Z M 58.3125 -1.453125 "/></g></g></g><g fill="#ffffff" fill-opacity="1"><g transform="translate(210.861896, 71.059156)"><g><path d="M 35.328125 -32.75 C 35.628906 -32.75 35.875 -32.648438 36.0625 -32.453125 C 36.257812 -32.265625 36.359375 -32.007812 36.359375 -31.6875 L 36.359375 -1 C 36.359375 -0.695312 36.257812 -0.445312 36.0625 -0.25 C 35.875 -0.0625 35.628906 0.03125 35.328125 0.03125 L 31.75 0.03125 C 31.238281 0.03125 30.875 -0.203125 30.65625 -0.671875 L 29.328125 -5.09375 C 28.015625 -3.269531 26.382812 -1.84375 24.4375 -0.8125 C 22.5 0.21875 20.347656 0.734375 17.984375 0.734375 C 15.753906 0.734375 13.6875 0.304688 11.78125 -0.546875 C 9.875 -1.410156 8.210938 -2.609375 6.796875 -4.140625 C 5.378906 -5.679688 4.269531 -7.488281 3.46875 -9.5625 C 2.675781 -11.632812 2.28125 -13.882812 2.28125 -16.3125 C 2.28125 -18.800781 2.671875 -21.09375 3.453125 -23.1875 C 4.242188 -25.28125 5.347656 -27.101562 6.765625 -28.65625 C 8.179688 -30.207031 9.84375 -31.40625 11.75 -32.25 C 13.65625 -33.101562 15.722656 -33.53125 17.953125 -33.53125 C 20.316406 -33.53125 22.472656 -33.007812 24.421875 -31.96875 C 26.378906 -30.9375 28.015625 -29.488281 29.328125 -27.625 L 30.65625 -32.046875 C 30.875 -32.515625 31.238281 -32.75 31.75 -32.75 Z M 19.5 -7.28125 C 20.75 -7.28125 21.921875 -7.507812 23.015625 -7.96875 C 24.109375 -8.4375 25.070312 -9.082031 25.90625 -9.90625 C 26.75 -10.738281 27.40625 -11.703125 27.875 -12.796875 C 28.351562 -13.890625 28.59375 -15.070312 28.59375 -16.34375 C 28.59375 -17.632812 28.347656 -18.832031 27.859375 -19.9375 C 27.378906 -21.039062 26.71875 -22.003906 25.875 -22.828125 C 25.039062 -23.660156 24.078125 -24.304688 22.984375 -24.765625 C 21.890625 -25.234375 20.71875 -25.46875 19.46875 -25.46875 C 18.238281 -25.46875 17.085938 -25.234375 16.015625 -24.765625 C 14.941406 -24.304688 13.992188 -23.660156 13.171875 -22.828125 C 12.359375 -22.003906 11.71875 -21.039062 11.25 -19.9375 C 10.78125 -18.832031 10.546875 -17.632812 10.546875 -16.34375 C 10.546875 -15.070312 10.78125 -13.890625 11.25 -12.796875 C 11.71875 -11.703125 12.363281 -10.738281 13.1875 -9.90625 C 14.019531 -9.082031 14.972656 -8.4375 16.046875 -7.96875 C 17.128906 -7.507812 18.28125 -7.28125 19.5 -7.28125 Z M 19.5 -7.28125 "/></g></g></g><g fill="#ffffff" fill-opacity="1"><g transform="translate(251.506548, 71.059156)"><g><path d="M 14.25 -25.40625 C 13.257812 -25.40625 12.484375 -25.21875 11.921875 -24.84375 C 11.367188 -24.476562 11.09375 -23.953125 11.09375 -23.265625 C 11.09375 -22.878906 11.207031 -22.53125 11.4375 -22.21875 C 11.675781 -21.914062 12.148438 -21.613281 12.859375 -21.3125 C 13.566406 -21.007812 14.640625 -20.65625 16.078125 -20.25 C 18.460938 -19.582031 20.5 -18.785156 22.1875 -17.859375 C 23.875 -16.929688 25.164062 -15.757812 26.0625 -14.34375 C 26.957031 -12.925781 27.40625 -11.144531 27.40625 -9 C 27.40625 -6.820312 26.859375 -5.007812 25.765625 -3.5625 C 24.679688 -2.113281 23.1875 -1.023438 21.28125 -0.296875 C 19.382812 0.421875 17.203125 0.78125 14.734375 0.78125 C 12.328125 0.78125 10.039062 0.359375 7.875 -0.484375 C 5.71875 -1.335938 3.78125 -2.660156 2.0625 -4.453125 C 1.675781 -4.816406 1.507812 -5.164062 1.5625 -5.5 C 1.613281 -5.832031 1.789062 -6.160156 2.09375 -6.484375 L 5.734375 -10.25 C 6.054688 -10.570312 6.398438 -10.707031 6.765625 -10.65625 C 7.128906 -10.601562 7.472656 -10.4375 7.796875 -10.15625 C 8.742188 -9.289062 9.820312 -8.597656 11.03125 -8.078125 C 12.25 -7.566406 13.484375 -7.3125 14.734375 -7.3125 C 16.003906 -7.3125 17.046875 -7.457031 17.859375 -7.75 C 18.671875 -8.039062 19.078125 -8.582031 19.078125 -9.375 C 19.078125 -10.195312 18.625 -10.84375 17.71875 -11.3125 C 16.820312 -11.78125 15.578125 -12.242188 13.984375 -12.703125 C 12.285156 -13.171875 10.753906 -13.703125 9.390625 -14.296875 C 8.023438 -14.890625 6.851562 -15.597656 5.875 -16.421875 C 4.90625 -17.253906 4.160156 -18.273438 3.640625 -19.484375 C 3.128906 -20.703125 2.875 -22.171875 2.875 -23.890625 C 2.875 -25.109375 3.117188 -26.289062 3.609375 -27.4375 C 4.109375 -28.59375 4.832031 -29.617188 5.78125 -30.515625 C 6.738281 -31.421875 7.925781 -32.140625 9.34375 -32.671875 C 10.757812 -33.210938 12.394531 -33.484375 14.25 -33.484375 C 16.550781 -33.484375 18.671875 -33.035156 20.609375 -32.140625 C 22.554688 -31.253906 24.316406 -29.953125 25.890625 -28.234375 C 26.523438 -27.523438 26.46875 -26.828125 25.71875 -26.140625 L 22.4375 -23.078125 C 22.132812 -22.816406 21.75 -22.691406 21.28125 -22.703125 C 20.820312 -22.710938 20.453125 -22.847656 20.171875 -23.109375 C 19.335938 -23.878906 18.457031 -24.453125 17.53125 -24.828125 C 16.613281 -25.210938 15.519531 -25.40625 14.25 -25.40625 Z M 14.25 -25.40625 "/></g></g></g><g fill="#ffffff" fill-opacity="1"><g transform="translate(280.902205, 71.059156)"><g><path d="M 19.921875 -6.9375 C 20.347656 -6.9375 20.707031 -6.820312 21 -6.59375 C 21.289062 -6.363281 21.4375 -6.066406 21.4375 -5.703125 L 21.4375 -0.546875 C 21.4375 -0.160156 21.285156 0.15625 20.984375 0.40625 C 20.679688 0.65625 20.296875 0.78125 19.828125 0.78125 C 16.960938 0.78125 14.503906 0.28125 12.453125 -0.71875 C 10.398438 -1.71875 8.816406 -3.203125 7.703125 -5.171875 C 6.585938 -7.140625 6.03125 -9.570312 6.03125 -12.46875 L 6.03125 -25.921875 L 2.25 -25.921875 C 1.613281 -25.921875 1.296875 -26.242188 1.296875 -26.890625 L 1.296875 -31.71875 C 1.296875 -32.382812 1.613281 -32.71875 2.25 -32.71875 L 6.03125 -32.71875 L 6.03125 -41.671875 C 6.03125 -42.273438 6.304688 -42.65625 6.859375 -42.8125 L 13.015625 -44.15625 C 13.796875 -44.289062 14.1875 -44.003906 14.1875 -43.296875 L 14.1875 -32.71875 L 20.28125 -32.71875 C 20.894531 -32.71875 21.203125 -32.394531 21.203125 -31.75 L 21.203125 -26.890625 C 21.203125 -26.242188 20.894531 -25.921875 20.28125 -25.921875 L 14.21875 -25.921875 L 14.21875 -12.34375 C 14.21875 -10.519531 14.726562 -9.160156 15.75 -8.265625 C 16.769531 -7.378906 18.160156 -6.9375 19.921875 -6.9375 Z M 19.921875 -6.9375 "/></g></g></g><g fill="#ffffff" fill-opacity="1"><g transform="translate(305.495282, 71.059156)"><g><path d="M 35.515625 -17.921875 C 35.515625 -17.015625 35.328125 -16.140625 34.953125 -15.296875 C 34.578125 -14.460938 34.070312 -13.773438 33.4375 -13.234375 C 32.800781 -12.703125 32.085938 -12.4375 31.296875 -12.4375 L 11.15625 -12.4375 C 11.5625 -11.382812 12.1875 -10.441406 13.03125 -9.609375 C 13.882812 -8.785156 14.898438 -8.140625 16.078125 -7.671875 C 17.265625 -7.203125 18.546875 -6.96875 19.921875 -6.96875 C 20.546875 -6.96875 21.242188 -7.070312 22.015625 -7.28125 C 22.785156 -7.5 23.566406 -7.796875 24.359375 -8.171875 C 25.160156 -8.546875 25.882812 -8.96875 26.53125 -9.4375 C 26.769531 -9.632812 27.039062 -9.707031 27.34375 -9.65625 C 27.65625 -9.601562 27.910156 -9.457031 28.109375 -9.21875 L 31.390625 -4.90625 C 31.566406 -4.644531 31.644531 -4.363281 31.625 -4.0625 C 31.601562 -3.757812 31.472656 -3.5 31.234375 -3.28125 C 30.304688 -2.507812 29.175781 -1.8125 27.84375 -1.1875 C 26.519531 -0.570312 25.140625 -0.0859375 23.703125 0.265625 C 22.273438 0.628906 20.9375 0.8125 19.6875 0.8125 C 17.238281 0.8125 14.960938 0.367188 12.859375 -0.515625 C 10.753906 -1.398438 8.910156 -2.617188 7.328125 -4.171875 C 5.753906 -5.734375 4.519531 -7.550781 3.625 -9.625 C 2.726562 -11.695312 2.28125 -13.925781 2.28125 -16.3125 C 2.28125 -18.71875 2.71875 -20.957031 3.59375 -23.03125 C 4.46875 -25.101562 5.675781 -26.921875 7.21875 -28.484375 C 8.769531 -30.054688 10.570312 -31.28125 12.625 -32.15625 C 14.675781 -33.039062 16.894531 -33.484375 19.28125 -33.484375 C 21.550781 -33.484375 23.671875 -33.085938 25.640625 -32.296875 C 27.609375 -31.503906 29.332031 -30.394531 30.8125 -28.96875 C 32.300781 -27.550781 33.457031 -25.898438 34.28125 -24.015625 C 35.101562 -22.140625 35.515625 -20.109375 35.515625 -17.921875 Z M 19.078125 -25.8125 C 17.816406 -25.8125 16.640625 -25.554688 15.546875 -25.046875 C 14.460938 -24.546875 13.535156 -23.847656 12.765625 -22.953125 C 11.992188 -22.066406 11.425781 -21.046875 11.0625 -19.890625 L 27.359375 -19.890625 C 27.046875 -21.046875 26.484375 -22.066406 25.671875 -22.953125 C 24.867188 -23.847656 23.898438 -24.546875 22.765625 -25.046875 C 21.640625 -25.554688 20.410156 -25.8125 19.078125 -25.8125 Z M 19.078125 -25.8125 "/></g></g></g><g fill="#ffffff" fill-opacity="1"><g transform="translate(343.27129, 71.059156)"><g><path d="M 29.109375 -30.46875 C 29.296875 -30.3125 29.410156 -30.09375 29.453125 -29.8125 C 29.503906 -29.53125 29.429688 -29.242188 29.234375 -28.953125 L 26.59375 -24.6875 C 26.375 -24.363281 26.128906 -24.175781 25.859375 -24.125 C 25.597656 -24.070312 25.335938 -24.15625 25.078125 -24.375 C 24.347656 -24.988281 23.550781 -25.476562 22.6875 -25.84375 C 21.832031 -26.21875 21.039062 -26.40625 20.3125 -26.40625 C 18.820312 -26.40625 17.484375 -26.015625 16.296875 -25.234375 C 15.117188 -24.460938 14.1875 -23.429688 13.5 -22.140625 C 12.8125 -20.847656 12.46875 -19.441406 12.46875 -17.921875 L 12.46875 -0.96875 C 12.46875 -0.300781 12.132812 0.03125 11.46875 0.03125 L 5.28125 0.03125 C 4.613281 0.03125 4.28125 -0.300781 4.28125 -0.96875 L 4.28125 -31.6875 C 4.28125 -32.007812 4.378906 -32.265625 4.578125 -32.453125 C 4.773438 -32.648438 5.019531 -32.75 5.3125 -32.75 L 8.890625 -32.75 C 9.148438 -32.75 9.367188 -32.679688 9.546875 -32.546875 C 9.734375 -32.421875 9.882812 -32.253906 10 -32.046875 L 11.40625 -27.328125 C 12.113281 -28.554688 12.992188 -29.628906 14.046875 -30.546875 C 15.109375 -31.472656 16.257812 -32.191406 17.5 -32.703125 C 18.75 -33.222656 20.019531 -33.484375 21.3125 -33.484375 C 22.59375 -33.484375 23.929688 -33.207031 25.328125 -32.65625 C 26.734375 -32.113281 27.992188 -31.382812 29.109375 -30.46875 Z M 29.109375 -30.46875 "/></g></g></g></svg>